HIERARCHY
ROOT Hips
{
	OFFSET 0.000000 0.000000 0.000000
	CHANNELS 6 Xposition Yposition Zposition Zrotation Xrotation Yrotation
	JOINT RightUpLeg
	{
		OFFSET -10.032200 0.000000 0.000000
		CHANNELS 3 Zrotation Xrotation Yrotation
		JOINT RightLeg
		{
			OFFSET 0.000000 -40.977000 0.000000
			CHANNELS 3 Zrotation Xrotation Yrotation
			JOINT RightFoot
			{
				OFFSET 0.000000 -38.933200 0.000000
				CHANNELS 3 Zrotation Xrotation Yrotation
				JOINT RightToe
				{
					OFFSET 0.000000 -1.977400 9.184000
					CHANNELS 3 Zrotation Xrotation Yrotation
					JOINT RightToeEnd
					{
						OFFSET 0.000000 2.335600 6.099100
						CHANNELS 3 Zrotation Xrotation Yrotation
						End Site
						{
						    OFFSET 0.000000 1.788000 4.669400
						}
					}
				}
			}
		}
	}
	JOINT LeftUpLeg
	{
		OFFSET 10.032200 0.000000 0.000000
		CHANNELS 3 Zrotation Xrotation Yrotation
		JOINT LeftLeg
		{
			OFFSET 0.000000 -40.977000 0.000000
			CHANNELS 3 Zrotation Xrotation Yrotation
			JOINT LeftFoot
			{
				OFFSET 0.000000 -38.933200 0.000000
				CHANNELS 3 Zrotation Xrotation Yrotation
				JOINT LeftToe
				{
					OFFSET 0.000000 -1.977400 9.184000
					CHANNELS 3 Zrotation Xrotation Yrotation
					JOINT LeftToeEnd
					{
						OFFSET 0.000000 2.335600 6.099100
						CHANNELS 3 Zrotation Xrotation Yrotation
						End Site
						{
						    OFFSET 0.000000 1.788000 4.669400
						}
					}
				}
			}
		}
	}
	JOINT Spine
	{
		OFFSET 0.000000 16.960900 0.000000
		CHANNELS 3 Zrotation Xrotation Yrotation
		JOINT Spine1
		{
			OFFSET 0.000000 13.413900 0.000000
			CHANNELS 3 Zrotation Xrotation Yrotation
			JOINT Spine2
			{
				OFFSET 0.000000 10.384400 0.000000
				CHANNELS 3 Zrotation Xrotation Yrotation
				JOINT LeftShoulder
				{
					OFFSET 2.000000 10.384400 0.000000
					CHANNELS 3 Zrotation Xrotation Yrotation
					JOINT LeftArm
					{
						OFFSET 15.649100 0.000000 0.000000
						CHANNELS 3 Zrotation Xrotation Yrotation
						JOINT LeftForeArm
						{
							OFFSET 0.000000 -26.641600 0.000000
							CHANNELS 3 Zrotation Xrotation Yrotation
							JOINT LeftHand
							{
								OFFSET 0.000000 -23.740600 0.000000
								CHANNELS 3 Zrotation Xrotation Yrotation
								JOINT LeftFinger0
								{
									OFFSET 0.000000 -7.620900 0.000000
									CHANNELS 3 Zrotation Xrotation Yrotation
									End Site
									{
									    OFFSET 0.000000 -5.000000 0.000000
									}
								}
							}
						}
					}
				}
				JOINT RightShoulder
				{
					OFFSET -2.000000 10.384400 0.000000
					CHANNELS 3 Zrotation Xrotation Yrotation
					JOINT RightArm
					{
						OFFSET -15.649100 0.000000 0.000000
						CHANNELS 3 Zrotation Xrotation Yrotation
						JOINT RightForeArm
						{
							OFFSET 0.000000 -26.641600 0.000000
							CHANNELS 3 Zrotation Xrotation Yrotation
							JOINT RightHand
							{
								OFFSET 0.000000 -23.740600 0.000000
								CHANNELS 3 Zrotation Xrotation Yrotation
								JOINT RightFinger0
								{
									OFFSET 0.000000 -7.620900 0.000000
									CHANNELS 3 Zrotation Xrotation Yrotation
									End Site
									{
									    OFFSET 0.000000 -5.000000 0.000000
									}
								}
							}
						}
					}
				}
				JOINT Neck
				{
					OFFSET 0.000000 10.384400 0.000000
					CHANNELS 3 Zrotation Xrotation Yrotation
					JOINT Head
					{
						OFFSET 0.000000 10.146900 0.000000
						CHANNELS 3 Zrotation Xrotation Yrotation
						JOINT HeadTip
						{
							OFFSET 0.000000 10.000000 0.000000
							CHANNELS 3 Zrotation Xrotation Yrotation
							End Site
							{
							    OFFSET 0.000000 5.000000 0.000000
							}
						}
					}
				}
			}
		}
	}
}
MOTION
Frames:	12
Frame Time:	0.033332
-195.492500 86.491000 -30.062900 -1.104564 -1.328757 -0.851066 -0.815195 -3.240373 -25.565606 -0.000000 8.679757 -0.000000 4.141466 14.476505 -0.808009 -0.000000 1.504779 0.000000 -0.000000 0.000000 -0.000000 2.261113 -3.550000 28.295205 0.000000 8.795861 -0.000000 0.925950 15.663193 -9.349576 -0.000000 -2.320597 0.000000 -0.000000 0.000000 -0.000000 0.380548 0.730845 0.281402 -0.000000 3.216513 -0.000000 -0.000000 0.000000 -0.000000 2.025585 -0.000000 5.111539 89.559296 -7.486958 15.007104 0.000000 -12.502408 -0.000000 2.512065 11.298868 -15.108495 -0.000000 0.000000 -0.000000 -2.987826 -0.000000 -3.732238 -89.701030 -12.502546 -14.261328 -0.000013 -4.755697 -0.000001 -2.086374 16.764575 21.628638 -0.000000 -0.000000 0.000000 -0.000000 0.000000 -0.000000 -2.300072 -0.766377 1.192305 0.000000 0.000000 -0.000000 
-195.499500 86.501600 -30.042200 -1.106152 -1.262938 -0.894415 -0.801161 -3.271006 -25.581160 -0.000000 8.624793 0.000000 4.172047 14.504324 -0.766137 -0.000000 1.560728 -0.000000 -0.000000 0.000000 0.000000 2.257737 -3.557342 28.383742 -0.000000 8.718982 -0.000000 0.827703 15.690157 -9.393961 -0.000000 -2.254402 -0.000000 -0.000000 0.000000 -0.000000 0.361763 0.711953 0.301679 0.000000 3.178157 -0.000000 0.000000 0.000000 -0.000000 2.075070 -0.000000 5.128681 89.621244 -7.455857 14.898068 -0.000000 -12.358288 0.000000 2.289739 11.238729 -15.043961 -0.000000 0.000000 0.000000 -3.050574 -0.000000 -3.730944 -89.661374 -12.509101 -14.265792 -0.000012 -4.666617 -0.000001 -1.977786 16.760221 21.613501 -0.000000 -0.000000 -0.000000 0.000000 0.000000 -0.000000 -2.313809 -0.745521 1.120550 0.000000 0.000000 -0.000000 
-195.493100 86.510100 -30.013800 -1.101434 -1.204448 -0.944466 -0.803899 -3.302238 -25.550944 -0.000000 8.589884 -0.000000 4.157795 14.563408 -0.730380 0.000000 1.521866 -0.000000 -0.000000 -0.000000 -0.000000 2.238545 -3.580479 28.339806 0.000000 8.686073 0.000000 0.809604 15.704931 -9.295581 0.000000 -2.228754 0.000000 0.000000 -0.000000 -0.000000 0.365092 0.690469 0.333828 -0.000000 3.147480 -0.000000 -0.000000 -0.000000 0.000000 2.129349 0.000000 5.166344 89.698346 -7.399721 14.918733 0.000000 -12.279134 -0.000000 2.300678 11.263868 -15.212486 -0.000000 0.000000 -0.000000 -3.148528 0.000000 -3.729920 -89.689835 -12.430127 -14.299360 -0.000012 -4.694808 -0.000001 -1.917960 16.829471 21.531333 0.000000 -0.000000 -0.000000 -0.000000 -0.000000 0.000000 -2.406022 -0.692355 0.960324 -0.000000 0.000000 -0.000000 
-195.488900 86.511600 -29.983100 -1.099341 -1.179908 -0.967937 -0.797827 -3.300748 -25.509556 -0.000000 8.570210 -0.000000 4.147360 14.538988 -0.762874 -0.000000 1.539118 -0.000000 0.000000 0.000000 0.000000 2.228817 -3.562150 28.395101 -0.000000 8.652015 -0.000000 0.803488 15.696881 -9.337651 0.000000 -2.237615 -0.000000 -0.000000 0.000000 0.000000 0.373756 0.698842 0.350598 0.000000 3.129792 -0.000000 0.000000 0.000000 -0.000000 2.177811 0.000000 5.204125 89.818005 -7.326272 14.884504 0.000000 -12.271819 -0.000000 2.398562 11.297188 -15.159552 0.000000 0.000000 -0.000000 -3.259432 -0.000000 -3.762932 -89.776033 -12.386506 -14.383487 -0.000012 -4.687605 -0.000001 -1.983130 16.857034 21.590154 -0.000000 -0.000000 -0.000000 0.000000 0.000000 -0.000000 -2.465204 -0.729160 0.940932 -0.000000 0.000000 -0.000000 
-195.483900 86.509900 -29.954500 -1.097249 -1.165871 -0.950795 -0.806243 -3.296738 -25.489415 -0.000000 8.576780 0.000000 4.161306 14.557417 -0.773510 -0.000000 1.461014 -0.000000 -0.000000 0.000000 -0.000000 2.224245 -3.558619 28.399109 -0.000000 8.654869 -0.000000 0.828315 15.673455 -9.367343 -0.000000 -2.229797 -0.000000 0.000000 -0.000000 -0.000000 0.388884 0.707384 0.353063 0.000000 3.137783 -0.000000 -0.000000 -0.000000 0.000000 2.283577 0.000000 5.313695 89.870530 -7.383172 14.803778 -0.000000 -12.296191 -0.000000 2.314155 11.384152 -15.138916 -0.000000 0.000000 0.000000 -3.413162 -0.000000 -3.893860 -89.831199 -12.378729 -14.262112 -0.000013 -4.817525 -0.000001 -1.975166 16.916774 21.640473 0.000000 0.000000 -0.000000 -0.000000 -0.000000 0.000000 -2.557300 -0.677413 0.841074 0.000000 0.000000 0.000000 
-195.478000 86.512800 -29.922800 -1.090822 -1.154634 -0.907238 -0.815108 -3.284639 -25.512778 0.000000 8.583575 0.000000 4.156550 14.520019 -0.807206 0.000000 1.507625 -0.000000 -0.000000 0.000000 0.000000 2.218037 -3.557708 28.359875 0.000000 8.665255 -0.000000 0.769300 15.661227 -9.373495 -0.000000 -2.214715 -0.000000 -0.000000 0.000000 -0.000000 0.401238 0.712063 0.351966 -0.000000 3.110532 -0.000000 -0.000000 0.000000 -0.000000 2.413612 0.000000 5.372341 89.884748 -7.431041 14.720392 -0.000000 -12.263570 -0.000000 2.144869 11.300425 -15.165581 -0.000000 0.000000 -0.000000 -3.586508 0.000000 -3.997917 -89.855020 -12.357414 -14.327009 -0.000013 -4.847427 -0.000001 -1.997844 16.905979 21.742240 0.000000 0.000000 -0.000000 -0.000000 0.000000 -0.000000 -2.628905 -0.450161 0.747069 -0.000000 0.000000 -0.000000 
-195.475900 86.517400 -29.894000 -1.084078 -1.133805 -0.832557 -0.818832 -3.270499 -25.554026 -0.000000 8.566008 -0.000000 4.156649 14.509713 -0.848617 -0.000000 1.504506 -0.000000 -0.000000 -0.000000 -0.000000 2.203751 -3.564696 28.336884 -0.000000 8.652046 0.000000 0.797194 15.662209 -9.419291 -0.000000 -2.185602 -0.000000 0.000000 -0.000000 -0.000000 0.404416 0.690651 0.329341 -0.000000 3.101475 -0.000000 -0.000000 0.000000 0.000000 2.515796 0.000000 5.423723 89.938709 -7.479951 14.664282 -0.000000 -12.307145 0.000000 2.128615 11.364936 -15.178871 0.000000 0.000000 -0.000000 -3.721545 0.000000 -4.109604 -89.909224 -12.349397 -14.348935 -0.000013 -4.831807 -0.000001 -2.001672 16.917319 21.714836 0.000000 0.000000 -0.000000 -0.000000 0.000000 0.000000 -2.678495 -0.270263 0.724928 -0.000000 0.000000 0.000000 
-195.474700 86.521100 -29.869400 -1.080227 -1.114435 -0.785147 -0.827529 -3.271871 -25.590763 0.000000 8.575117 0.000000 4.203873 14.493775 -0.862866 0.000000 1.530736 -0.000000 -0.000000 0.000000 -0.000000 2.192110 -3.564785 28.300431 0.000000 8.630081 -0.000000 0.814069 15.667759 -9.434252 -0.000000 -2.171355 -0.000000 0.000000 0.000000 0.000000 0.402283 0.681827 0.302231 0.000000 3.083634 -0.000000 0.000000 0.000000 -0.000000 2.601013 0.000000 5.458447 90.004632 -7.450641 14.688079 0.000000 -12.351296 0.000000 2.160694 11.374008 -15.192496 -0.000000 0.000000 -0.000000 -3.847290 0.000000 -4.165744 -89.954125 -12.333700 -14.253244 -0.000013 -4.824263 -0.000001 -2.019311 17.036982 21.689349 0.000000 0.000000 -0.000000 0.000000 0.000000 -0.000000 -2.683326 -0.094351 0.697249 -0.000000 0.000000 0.000000 
-195.471900 86.523800 -29.852000 -1.079887 -1.093529 -0.762475 -0.830245 -3.279684 -25.600152 -0.000000 8.578478 -0.000000 4.177316 14.484452 -0.878108 -0.000000 1.532227 -0.000000 -0.000000 0.000000 -0.000000 2.190026 -3.580704 28.272569 -0.000000 8.635947 -0.000000 0.793845 15.681604 -9.413598 0.000000 -2.197065 -0.000000 -0.000000 0.000000 -0.000000 0.401402 0.684194 0.323555 -0.000000 3.073714 -0.000000 0.000000 0.000000 0.000000 2.667079 -0.000000 5.485717 90.092213 -7.460359 14.712186 0.000000 -12.355149 -0.000000 2.154667 11.395867 -15.282138 0.000000 0.000000 -0.000000 -3.953685 0.000000 -4.218642 -89.984860 -12.261609 -14.287040 -0.000013 -4.839168 -0.000001 -2.025796 17.027518 21.666018 0.000000 0.000000 -0.000000 0.000000 0.000000 0.000000 -2.689321 0.000337 0.622048 -0.000000 0.000000 -0.000000 
-195.473100 86.526700 -29.837100 -1.075925 -1.075734 -0.743751 -0.833039 -3.282953 -25.609904 -0.000000 8.573436 0.000000 4.204615 14.482707 -0.886363 -0.000000 1.547591 -0.000000 -0.000000 0.000000 0.000000 2.189467 -3.592853 28.280600 -0.000000 8.642735 -0.000000 0.774412 15.678585 -9.441866 -0.000000 -2.165783 0.000000 -0.000000 0.000000 0.000000 0.381606 0.686642 0.334163 0.000000 3.073197 -0.000000 0.000000 0.000000 -0.000000 2.733136 -0.000000 5.503171 90.161319 -7.446619 14.719345 -0.000000 -12.354548 -0.000000 2.270422 11.385194 -15.216325 -0.000000 0.000000 -0.000000 -4.011477 0.000000 -4.262528 -90.024358 -12.237529 -14.296358 -0.000013 -4.819910 -0.000001 -2.063945 17.057202 21.673834 -0.000000 0.000000 -0.000000 0.000000 0.000000 -0.000000 -2.666849 0.106706 0.548502 0.000000 0.000000 -0.000000 
-195.467600 86.530200 -29.819900 -1.077449 -1.047028 -0.755013 -0.833614 -3.299155 -25.616369 -0.000000 8.565909 0.000000 4.153204 14.514841 -0.860312 -0.000000 1.498736 -0.000000 0.000000 -0.000000 -0.000000 2.181713 -3.594892 28.293489 -0.000000 8.612917 0.000000 0.789316 15.669510 -9.442474 0.000000 -2.132534 0.000000 0.000000 -0.000000 -0.000000 0.381318 0.683253 0.357136 0.000000 3.062269 -0.000000 -0.000000 0.000000 -0.000000 2.761975 -0.000000 5.529798 90.217466 -7.416420 14.704362 0.000000 -12.387221 -0.000000 2.305986 11.379803 -15.143050 0.000000 -0.000000 -0.000000 -4.085292 -0.000000 -4.308842 -90.036384 -12.228117 -14.269335 -0.000013 -4.843158 -0.000001 -1.981521 17.101090 21.612902 0.000000 0.000000 0.000000 -0.000000 0.000000 -0.000000 -2.614909 0.125972 0.572749 -0.000000 0.000000 -0.000000 
-195.460400 86.534700 -29.804100 -1.074141 -1.021461 -0.756500 -0.845564 -3.319389 -25.628746 -0.000000 8.577309 -0.000000 4.189738 14.517225 -0.852165 -0.000000 1.527179 -0.000000 0.000000 -0.000000 -0.000000 2.166102 -3.600622 28.234329 0.000000 8.578538 0.000000 0.808122 15.743247 -9.391184 -0.000000 -2.253868 -0.000000 0.000000 -0.000000 -0.000000 0.377169 0.686381 0.337590 0.000000 3.035839 -0.000000 -0.000000 -0.000000 0.000000 2.757235 -0.000000 5.572838 90.275730 -7.410813 14.711028 -0.000000 -12.344998 -0.000000 2.414450 11.341533 -15.212899 0.000000 0.000000 -0.000000 -4.131804 0.000000 -4.302076 -90.031801 -12.219798 -14.165811 -0.000013 -4.864162 -0.000001 -2.028587 17.129629 21.509135 -0.000000 0.000000 -0.000000 -0.000000 -0.000000 0.000000 -2.613308 0.200437 0.556104 -0.000000 0.000000 -0.000000 
